<?xml version="1.0" encoding="utf-8"?>
<svg viewBox="174.533 201.257 148.701 75.327" xmlns="http://www.w3.org/2000/svg">
  <g id="g8" transform="matrix(0.06544200330972672, 0, 0, -0.062025003135204315, 172.49346923828125, 310.4864501953125)" style="">
    <g id="g10" transform="scale(0.1)">
      <path d="M 13996.169 13824.713 C 12476.787 13957.237 10957.552 13812.619 9469.096 13405.469 C 7980.642 12998.323 6522.588 12328.645 5125.837 11408.53 C 3729.201 10488.417 2393.778 9317.363 1154.159 7911.997 C 1098.126 7848.001 1078.022 7719.005 1110.404 7614.195 C 1144.704 7503.841 1224.246 7462.016 1288.136 7521.477 C 2576.66 8718.229 3935.736 9660.011 5329.84 10343.8 C 6724.091 11028.089 8153.572 11455.898 9586.576 11628.229 C 11019.581 11800.058 12456.394 11716.916 13865.161 11378.801 C 14880.644 11134.916 15881.49 10758.001 16854.844 10251.082 L 15778.644 8081.809 L 21939.845 9055.841 L 17237.483 16019.179 L 17398.138 13053.247 C 16273.904 13470.472 15134.892 13725.948 13996.169 13824.713" style="fill-opacity: 1; fill-rule: nonzero; stroke: none; fill: rgb(255, 255, 255);" id="path18"/>
    </g>
  </g>
</svg>